<svg transform="scale(1)" id="_0022_graphic_chart" xmlns="http://www.w3.org/2000/svg" xmlns:xlink="http://www.w3.org/1999/xlink" viewBox="0 0 500 500" class="show_show__wrapper__graphic__5Waiy "><title>React</title><defs><style>.cls-1{fill:url(#linear-gradient);}.cls-1,.cls-2,.cls-3,.cls-4,.cls-5,.cls-6,.cls-7,.cls-8{stroke-width:0px;}.cls-2{isolation:isolate;opacity:.18;}.cls-2,.cls-8{fill:#00b0ff;}.cls-3{fill:url(#linear-gradient-4);}.cls-4{fill:url(#linear-gradient-2);}.cls-5{fill:url(#linear-gradient-3);}.cls-6{fill:url(#linear-gradient-5);}.cls-7{fill:#231f20;}</style><linearGradient id="linear-gradient" x1="-980.37" y1="-549.81" x2="-973.17" y2="-294.39" gradientTransform="translate(1231.41 940.43)" gradientUnits="userSpaceOnUse"><stop offset="0" stop-color="#000" stop-opacity="0"></stop><stop offset="1" stop-color="#000"></stop></linearGradient><linearGradient id="linear-gradient-2" x1="-1176.19" y1="-882.12" x2="-1169.97" y2="-327.06" gradientTransform="translate(1226.39 929.09)" xlink:href="#linear-gradient"></linearGradient><linearGradient id="linear-gradient-3" x1="-1037.22" y1="-897.09" x2="-1031.01" y2="-342.02" gradientTransform="translate(1231.41 940.44)" xlink:href="#linear-gradient"></linearGradient><linearGradient id="linear-gradient-4" x1="-916.44" y1="-898.44" x2="-910.22" y2="-343.37" gradientTransform="translate(1231.39 940.43)" xlink:href="#linear-gradient"></linearGradient><linearGradient id="linear-gradient-5" x1="-815" y1="-976.22" x2="-808.77" y2="-421.16" gradientTransform="translate(1231.39 940.43)" xlink:href="#linear-gradient"></linearGradient></defs><path class="cls-2" id="background" d="M119.63,123.22c32.74-28.33,82.77-47.73,118.14-22.77,17.93,12.64,27.57,33.81,42.13,50.22,14.56,16.42,40.33,28,57.95,14.9,8.13-6.03,12.35-15.85,18.6-23.8,18.6-23.7,55.66-28.08,81.87-13.26,26.21,14.82,41.31,45.22,42.58,75.32,1.35,33.28-12.1,65.29-16.02,98.36-3.66,31.34,1.29,63.08,14.32,91.81,4.34,9.53,9.64,18.96,10.73,29.35,1.09,10.39-3.45,22.35-13.31,25.9-4,1.43-8.37,1.35-12.62,1.19l-408.25-12.22c-8.42-.25-17.17-.59-24.64-4.48-20.57-10.75-19.86-40.92-10.73-62.26,9.12-21.34,23.93-42.06,21.87-65.18-3.06-34.32-43.94-66.25-16.79-100.22,9.86-12.35,28.53-20.35,40.5-30.97,18.62-16.54,34.83-35.57,53.66-51.87Z"></path><g id="graphic_data_2"><rect class="cls-8" x="47.89" y="285.22" width="50.48" height="155.73"></rect><rect class="cls-8" x="291.25" y="235.36" width="50.48" height="205.58"></rect><rect class="cls-8" x="169.57" y="165.03" width="50.48" height="275.92"></rect><rect class="cls-8" x="412.93" y="150.85" width="50.48" height="290.08"></rect><path class="cls-8" d="M481.16,449.91H23.78c-4.95.01-8.98-3.99-8.99-8.94,0,0,0-.02,0-.03h0c0-4.95,4.01-8.97,8.97-8.97,0,0,.02,0,.03,0h457.38c4.95,0,8.97,4.01,8.97,8.97h0c0,4.95-4.01,8.97-8.97,8.97h0Z"></path><path class="cls-1" d="M481.16,449.91H23.78c-4.95.01-8.98-3.99-8.99-8.94,0,0,0-.02,0-.03h0c0-4.95,4.01-8.97,8.97-8.97,0,0,.02,0,.03,0h457.38c4.95,0,8.97,4.01,8.97,8.97h0c0,4.95-4.01,8.97-8.97,8.97h0Z"></path></g><g id="graphic_data_1"><polygon class="cls-7" points="48.39 231.93 46.58 229.92 194.69 97.26 316.43 179.36 414.64 102.77 416.31 104.91 316.55 182.71 194.93 100.69 48.39 231.93"></polygon><circle class="cls-8" cx="47.49" cy="230.93" r="12.25"></circle><circle class="cls-8" cx="194.81" cy="98.98" r="12.25"></circle><circle class="cls-8" cx="316.48" cy="179" r="12.25"></circle><circle class="cls-4" cx="47.49" cy="230.93" r="12.25"></circle><circle class="cls-5" cx="194.81" cy="98.98" r="12.25"></circle><circle class="cls-3" cx="316.48" cy="179" r="12.25"></circle><circle class="cls-8" cx="417.93" cy="101.21" r="12.25"></circle><circle class="cls-6" cx="417.93" cy="101.21" r="12.25"></circle></g></svg>