<?xml version="1.0" standalone="no"?><!DOCTYPE svg PUBLIC "-//W3C//DTD SVG 1.1//EN" "http://www.w3.org/Graphics/SVG/1.1/DTD/svg11.dtd"><svg t="1721096569173" class="icon" viewBox="0 0 1024 1024" version="1.1" xmlns="http://www.w3.org/2000/svg" p-id="4262" xmlns:xlink="http://www.w3.org/1999/xlink" width="200" height="200"><path d="M655.98001545 482.90648738L543.48528887 482.90648738 543.48528887 370.40736628 487.22474202 370.40736628 487.22474202 482.91527642 374.73001543 482.91527642 374.73001543 539.16263972 487.22474202 539.16263972 487.22474202 651.65736626 543.48528887 651.65736626 543.48528887 539.16263972 655.98001545 539.16263972Z" p-id="4263" fill="#409EFF"></path><path d="M768.48001544 201.65736627L262.23001544 201.65736627c-31.06582031 0-56.25 25.18417969-56.25000001 56.25l0 506.25c0 31.06669922 25.18417969 56.25 56.25000001 56.25l506.25 0c31.06669922 0 56.25-25.18330078 56.25-56.25L824.73001544 257.90736627C824.73001544 226.84154596 799.54671466 201.65736627 768.48001544 201.65736627zM768.48001544 736.03236627c0 15.53291016-12.59208984 28.125-28.12499999 28.125L290.35501544 764.15736627c-15.53291016 0-28.125-12.59208984-28.12499999-28.125L262.23001544 286.03236628c0-15.53291016 12.59208984-28.125 28.12499999-28.12500001l450.00000002 0c15.53291016 0 28.125 12.59208984 28.12499999 28.12500001L768.48001544 736.03236627z" p-id="4264" fill="#409EFF"></path></svg>