<?xml version="1.0" standalone="no"?><!DOCTYPE svg PUBLIC "-//W3C//DTD SVG 1.1//EN" "http://www.w3.org/Graphics/SVG/1.1/DTD/svg11.dtd"><svg t="1721651134007" class="icon" viewBox="0 0 1024 1024" version="1.1" xmlns="http://www.w3.org/2000/svg" p-id="6606" xmlns:xlink="http://www.w3.org/1999/xlink" width="128" height="128"><path d="M884.343728 93.136417H139.721123a45.052796 45.052796 0 0 0-32.993209 13.652362 45.052796 45.052796 0 0 0-13.652363 32.87944V279.320511h837.799979V139.668219a45.052796 45.052796 0 0 0-13.652363-32.936324 45.109681 45.109681 0 0 0-32.879439-13.652363z m46.531802 791.211292v-511.963594h-511.963594v558.495396h465.431792c12.79909 0 23.777865-4.550787 32.879439-13.652363 9.101575-9.101575 13.652362-20.08035 13.652363-32.936324z m-605.027198 46.531802V372.384115H93.132436v511.963594c0 12.855975 4.550787 23.83475 13.652362 32.879439 9.101575 9.15846 20.023465 13.652362 32.87944 13.652363h186.184094zM139.664238 0.015928h744.622605c38.567924 0 71.504249 13.652362 98.752088 40.900202 27.304725 27.304725 40.900203 60.184165 40.900203 98.695204v744.67949c0 38.511039-13.652362 71.447364-40.900203 98.752089-27.304725 27.304725-60.184165 40.900203-98.695203 40.900202H139.664238c-38.567924 0-71.447364-13.652362-98.752089-40.957087A134.532655 134.532655 0 0 1 0.011947 884.347709V139.668219C0.011947 101.04341 13.664309 68.163971 40.969034 40.859246A134.58954 134.58954 0 0 1 139.607353 0.015928z" p-id="6607" fill="#ffffff"></path></svg>