<svg transform="scale(1)" id="_0564_transferwise" xmlns="http://www.w3.org/2000/svg" xmlns:xlink="http://www.w3.org/1999/xlink" viewBox="0 0 500 500" class="show_show__wrapper__graphic__5Waiy "><title>React</title><defs><style>.cls-1{fill:url(#linear-gradient);}.cls-1,.cls-2,.cls-3,.cls-4,.cls-5,.cls-6,.cls-7,.cls-8,.cls-9{stroke-width:0px;}.cls-2,.cls-3{isolation:isolate;opacity:.18;}.cls-2,.cls-9{fill:#00b0ff;}.cls-3,.cls-7{fill:#fff;}.cls-4{fill:#231f20;opacity:.14;}.cls-5{fill:url(#linear-gradient-2);}.cls-6{fill:#473f47;}.cls-8{fill:#ffb4a3;}</style><linearGradient id="linear-gradient" x1="-589.87" y1="-871.81" x2="-602.33" y2="-421.62" gradientTransform="translate(835.12 1015.04)" gradientUnits="userSpaceOnUse"><stop offset="0" stop-color="#fff" stop-opacity="0"></stop><stop offset="1" stop-color="#fff"></stop></linearGradient><linearGradient id="linear-gradient-2" x1="-833.9" y1="-890.21" x2="-483.05" y2="-618" gradientTransform="translate(835.12 1015.04)" gradientUnits="userSpaceOnUse"><stop offset="0" stop-color="#231f20"></stop><stop offset=".08" stop-color="#231f20" stop-opacity=".69"></stop><stop offset=".21" stop-color="#231f20" stop-opacity=".32"></stop><stop offset="1" stop-color="#231f20" stop-opacity="0"></stop></linearGradient></defs><path class="cls-2" id="background" d="M203.56,69.14c-9.46,2.9-18.46,7.15-26.72,12.61-15.52,10.41-27.48,25.22-41.1,38.01-22.21,20.93-48.82,36.56-72.7,55.6-23.88,19.04-45.84,42.87-53.36,72.42-14.44,56.84,14.7,136.95,65.37,168.3,31.07,19.21,71.52,15.28,105.72,2.45,34.19-12.83,64.9-33.57,98.64-47.56,6.78-2.8,13.97-5.37,21.27-4.64,7.3.73,13.59,4.53,20.17,7.56,21.21,9.89,45.13,12.38,67.92,7.06,13.31-3.33,25.98-8.81,37.52-16.24,40.53-25.56,68.4-72.12,66.82-120.01-1.58-47.9-35.15-94.36-81.51-106.52-15.51-4.07-31.81-4.46-47.33-8.51-20.53,0-39.99-30.54-52.12-43.35-6.15-6.49-12.46-13.11-20.37-17.25-9.19-4.8-19.82-5.9-30.17-6.3-19.52-.84-39.61.57-58.06,6.37Z"></path><g id="monitor"><polygon class="cls-9" points="289.5 343.22 183.86 343.22 195.28 306.48 275.31 306.48 289.5 343.22"></polygon><polygon class="cls-4" points="192.36 315.87 284.61 330.54 275.31 306.48 195.28 306.48 192.36 315.87"></polygon><rect class="cls-9" x="105.86" y="154.67" width="273.85" height="154.42" rx="16.15" ry="16.15"></rect><rect class="cls-1" x="105.86" y="155.01" width="273.85" height="154.42" rx="16.15" ry="16.15"></rect><path class="cls-9" d="M379.72,291.13v1.8c0,8.93-7.24,16.15-16.79,22.05H121.37c-8.27-5.9-15.51-13.12-15.51-22.05v-1.8h273.87Z"></path><rect class="cls-9" x="173.23" y="339.39" width="128.61" height="3.82"></rect></g><g id="wise"><path class="cls-5" d="M105.93,263.72h32.5c4.55-.07,8.19-3.82,8.12-8.37,0,0,0,0,0,0h0v-71.25c.07-4.55-3.56-8.3-8.12-8.37h0s-32.5,0-32.5,0v87.99Z"></path><rect class="cls-7" x="57.05" y="175.73" width="83.83" height="82.5" rx="7.38" ry="7.38"></rect><g id="_5rJZo6"><path class="cls-9" d="M79.5,189.38h40.53c-.21.61-.35,1.1-.55,1.58-6.63,15.87-13.24,31.75-19.82,47.63-.57,1.39-1.26,2-2.79,1.85-1.47-.08-2.94-.08-4.41,0l18.91-45.63h-21.81l4.73,7.69-7.93,8.21h13.2c-.84,1.82-1.54,3.39-2.32,4.92-.25.26-.6.4-.96.39h-21.43c-.14,0-.28-.11-.92-.73.56-.2,1.08-.48,1.56-.83,3.64-3.58,7.24-7.22,10.91-10.79.66-.47.82-1.38.35-2.04,0,0,0-.01-.01-.02l-.09-.11-7.15-12.12Z"></path></g></g><g id="currency"><circle class="cls-3" cx="191.29" cy="214.02" r="24.62"></circle><circle class="cls-3" cx="337.34" cy="214.02" r="24.62"></circle><path class="cls-7" d="M189.78,232.21v-4.48c-2.39,0-4.74-.67-6.77-1.93l1.03-2.99c1.88,1.21,4.07,1.85,6.3,1.85,3.18,0,5.28-1.82,5.28-4.34s-1.73-3.95-5.04-5.28c-4.53-1.77-7.33-3.78-7.31-7.65,0-3.67,2.6-6.47,6.67-7.15v-4.46h2.8v4.29c2.02.01,4,.54,5.76,1.54l-1.08,2.98c-1.69-1-3.62-1.52-5.59-1.5-3.4,0-4.69,2.06-4.69,3.78,0,2.31,1.65,3.45,5.5,5.04,4.58,1.85,6.87,4.15,6.88,8.09,0,3.49-2.43,6.78-6.98,7.56v4.59l-2.76.05Z"></path><circle class="cls-7" cx="191.57" cy="253.14" r="5.09"></circle><circle class="cls-7" cx="263.9" cy="253.14" r="5.09"></circle><circle class="cls-7" cx="337.34" cy="253.62" r="5.09"></circle><rect class="cls-7" x="192.36" y="251.9" width="143.07" height="1.71"></rect><g id="n5jV8V"><path class="cls-7" d="M336.89,230.42c-.48-.03-.96-.1-1.42-.21-3.1-.63-5.87-2.34-7.83-4.83-1.25-1.5-2.22-3.2-2.86-5.04-.09-.25-.19-.35-.47-.34h-4.79v-4.7h4.21v-2.31h-4.22v-4.75h4.8c.21.03.42-.11.45-.33,1.1-3.31,3.27-6.16,6.18-8.09,1.7-1.15,3.68-1.83,5.72-1.98h1.98l1.59.26c2.15.44,4.15,1.43,5.81,2.86,1.64,1.4,2.98,3.11,3.93,5.04l.08.2-4.25,2.03c-.21-.38-.4-.74-.63-1.1-1.1-1.93-2.85-3.4-4.93-4.16-1.82-.65-3.82-.57-5.57.24-2.15,1-3.86,2.74-4.84,4.89v.15h10.68v4.73h-11.99v2.31h11.96v4.75h-10.72c.47,1.01,1.08,1.94,1.83,2.77,1.1,1.27,2.54,2.2,4.16,2.66,2.4.67,4.98.12,6.91-1.46,1.27-.98,2.3-2.24,3-3.68,0-.08.09-.15.15-.25l4.31,2.06c-.45.76-.86,1.49-1.26,2.18-.98,1.48-2.23,2.76-3.68,3.78-1.83,1.27-3.98,2.03-6.2,2.19h-.33l-1.77.13Z"></path></g></g><g id="_character"><path class="cls-4" d="M199.04,373.3c-5.71,5.75-15.05,5.14-22.69,8.03l1.51,1.89c-.53,1.41-2.42,1.61-3.93,1.58-15.97-.42-32.55.35-48.41-1.36,3-3.85,7.75-4.1,12.14-4.85,6.72-1.15,13.29-2.94,20.06-3.9,13.68-2.04,27.54-2.51,41.33-1.39Z"></path><path class="cls-6" d="M129.03,375.81c.82,1.03,1.79,1.93,2.87,2.66,1.41.81,3.63,1.12,4.46,1.95.61.61,2.19,3.2-3.67,3.15-5.86-.05-8.69.37-9.32-.63s.91-7.34.91-7.34c1.56.3,3.16.37,4.74.2Z"></path><path class="cls-6" d="M160.94,375.82c.82,1.03,1.79,1.93,2.87,2.66,1.41.81,6.61,1.48,7.44,2.31.61.61,1.61,3.03-6.64,2.8-5.86-.16-8.69.37-9.32-.63-.63-1,.91-7.34.91-7.34,1.57.22,3.16.29,4.74.2Z"></path><path class="cls-6" d="M128.05,296.52c-.48,5.58-.68,11.17-.58,16.77.34,5.94.21,11.9-.38,17.83-.71,7.38-3.57,24.82-3.67,28.76-.1,3.93.44,16.54.44,16.54l5.72.14s4.82-30.51,6.05-33.62c1.24-3.11,12.61-37.38,12.77-39.87.16-2.48-20.36-6.54-20.36-6.54Z"></path><path class="cls-6" d="M157.07,297s1.12,19.24,1.54,23.11.69,18.75.9,21.17,1.39,31.67,2.52,35.3h-6.39s-6.54-21.27-6.54-31.34-4.35-21.87-7.15-28.51c-2.8-6.63-9.2-6.8-10.93-19.13-.05-.03,23.73-4.51,26.06-.61Z"></path><path class="cls-8" d="M149.1,244.48c-.63.82-1.42,1.49-2.32,1.98-.4,1.16-.4,2.43,0,3.59.72,1.49-9.19.59-9.19.59.23-1.92-.06-3.86-.84-5.62-3.97-5.23-4.88-8.12-2.18-12.75.54-.92,1.29-1.69,2.19-2.26,1.94-1.24,4.33-1.56,6.53-.9,1.15.37,2.19,1.03,3.03,1.9.39.42.68.92.84,1.48.3.76.68,1.48,1.15,2.16.11.21.24.4.4.57.4.42,1.05.57,1.37,1.05.28.5.3,1.1.06,1.61-.25.5-.44,1.04-.57,1.59-.21,1.51.48,3.63-.48,5.01Z"></path><path class="cls-8" d="M179.73,228.5c-.28,2.01-.83,3.98-1.64,5.84-.77,1.68-1.31,3.45-1.63,5.27-.16,1.51-.24,3.03-.55,4.54-.39,1.9-1.46,6.22-2.07,6.75-3.49,2.77-7.4,4.98-11.57,6.54-3.33,1.11-6.53,2.6-9.52,4.44-.39.25-1.79,0-2.23,0h-12.48c-2.07-.21-3.94-1.37-5.04-3.14-1.07-1.35-1.17-3.22-.25-4.68.47-.51,1.02-.94,1.64-1.26,1.66-1.01,4.29-2.93,6.3-2.77l7.56.52s3.67.38,4.72.58,8.08-1.26,9.53-1.41c2.09-.21,4.56-2.37,6.2-3.54,2.7-1.94,3.52-6.77,4.32-9.88.68-1.96.68-4.08,0-6.04-.63-1.36-1.92-2.67-1.49-4.12.64-.12,1.3.07,1.78.52,1.26-1.17,0-3.58,1.26-4.74.9-.83,2.41-.29,3.27.58,1.41,1.6,2.07,3.71,1.84,5.82.05.05.07.13.05.2Z"></path><path class="cls-9" d="M177.7,236.9c-.08,1.16-.18,2.32-.33,3.48-.08.82-.21,1.63-.4,2.43-.2.79-.47,1.58-.67,2.38-.5,2.14-.42,4.49-1.58,6.3-.42.63-.91,1.21-1.45,1.74-.25.28-.53.53-.84.73-.34.14-.69.26-1.05.37-.74.32-1.46.71-2.13,1.16l-2.41,1.26c-1.82.9-3.71,1.66-5.5,2.67-.8.45-1.54,1.01-2.19,1.65-1.97,1.99-2.52,4.53-2.41,7.78.2,8.46.41,16.91.62,25.35.08.6-.04,1.22-.37,1.74-.16.19-.36.34-.59.43-.41.14-.83.22-1.26.24-8.16.76-16.37.81-24.53.15-4.56-.4-2.52-1.78-4.8-4.9-1.59-2.21-4.2-3.67-6.54-4.97-3.49-1.92-7.36-4.25-8.26-8.13-.95-4.11,1.87-8.04,4.49-11.35l9.92-12.39c2.84-3.54,4.65-3.45,8.7-4.01.43,0,5.69-.66,5.71-.96,0,0,.95,1.26,5.9-.23,0,0,5.9.67,6.87.79,2.69.29,5.42-.1,7.92-1.15,2.49-.84,4.73-2.31,6.49-4.26,2.19-3.16,3.83-6.67,4.84-10.38.07-.4.31-.75.67-.95.36-.08.73,0,1.02.21l3.71,2,.2.13c.09.04.15.11.19.2.06.14.08.3.06.45Z"></path><path class="cls-6" d="M147.09,232.68c-.33-.29-.73-.5-1.16-.62.21,1.36-.11,2.75-.9,3.88-.79,1.12-1.27,2.42-1.39,3.78-.08-.46-.52-.76-.98-.68,0,0,0,0,0,0-.1.01-.19.05-.28.1-.46.29-.73.8-.71,1.34-.02.54.13,1.07.43,1.51.47.78,1.44,1.1,2.28.76-.63-.25-1.26.35-1.48,1.01-.09.67-.09,1.36,0,2.03.02.93-.23,1.85-.73,2.64l-.69-.74c-.19.31-.3.65-.34,1.01-.1.34-.43.71-.77.59-.14,0-.25-.18-.4-.18s-.34.32-.49.53c-.35.52-1.26.34-1.64-.14-.35-.53-.62-1.11-.78-1.73-.24-.58-.72-1.17-1.36-1.16-.16.04-.33.04-.49,0-.17-.08-.3-.24-.35-.43-.77-1.59-1.65-3.13-2.65-4.59-.88-1.15-1.65-2.37-2.31-3.66-2.03-4.43-.09-9.67,4.34-11.7.05-.02.09-.04.14-.06.63-.29,1.3-.5,1.99-.63,1.26-.23,2.52-.2,3.78-.39.83-.13,1.88-.74,2.71-.63,1.83.25,3.3,3.18,3.78,4.7.17.56.29,1.13.35,1.71-.01.58.01,1.16.09,1.74Z"></path><path class="cls-4" d="M127.05,264.46c-3.16,2.36-5.33,5.8-7.4,9.17-.85,1.24-1.52,2.59-1.99,4.01-.48,1.43-.37,3,.32,4.35.07.17.21.31.38.39.21.04.42,0,.61-.09l1.92-.79,5.21,9.37c.32-4.06.3-8.22.5-12.29.11-2.38.21-4.77.29-7.15.04-.9-.43-6.47.18-6.96Z"></path><path class="cls-4" d="M177.7,236.9c-.08,1.16-.18,2.32-.33,3.48-.08.82-.21,1.63-.4,2.43-.2.79-.47,1.58-.67,2.38-.5,2.14-.42,4.49-1.58,6.3-.42.63-.91,1.21-1.45,1.74-.25.28-.53.53-.84.73-.34.14-.69.26-1.05.37-.74.32-1.46.71-2.13,1.16l-2.41,1.26c-1.82.9-3.71,1.66-5.5,2.67-.8.45-1.54,1.01-2.19,1.65-1.97,1.99-2.52,4.53-2.41,7.78.2,8.46.41,16.91.62,25.35.08.6-.04,1.22-.37,1.74-.16.19-.36.34-.59.43-1.5.15-3.01.19-4.51.11,3.1-4.85,2.52-11.12,1.87-16.84-.66-4.45-.69-8.97-.1-13.43.63-4.51,2.95-8.61,6.51-11.46,3.2-2.35,7.43-3.27,10.17-6.13,1.54-1.85,2.72-3.96,3.49-6.24.62-1.5,1.56-5.69,3.57-6.1.09.04.15.11.19.2.07.12.11.26.11.4Z"></path></g></svg>